<?xml version="1.0" encoding="UTF-8" standalone="no"?>
<!-- Created with Inkscape (http://www.inkscape.org/) -->

<svg
   xmlns:dc="http://purl.org/dc/elements/1.1/"
   xmlns:cc="http://creativecommons.org/ns#"
   xmlns:rdf="http://www.w3.org/1999/02/22-rdf-syntax-ns#"
   xmlns:svg="http://www.w3.org/2000/svg"
   xmlns="http://www.w3.org/2000/svg"
   xmlns:sodipodi="http://sodipodi.sourceforge.net/DTD/sodipodi-0.dtd"
   xmlns:inkscape="http://www.inkscape.org/namespaces/inkscape"
   id="svg4238"
   version="1.1"
   inkscape:version="0.91 r13725"
   xml:space="preserve"
   width="288.17249"
   height="108.42"
   viewBox="0 0 288.17249 108.42"
   sodipodi:docname="logo_claim_de.svg"><metadata
     id="metadata4244"><rdf:RDF><cc:Work
         rdf:about=""><dc:format>image/svg+xml</dc:format><dc:type
           rdf:resource="http://purl.org/dc/dcmitype/StillImage" /><dc:title /></cc:Work></rdf:RDF></metadata><defs
     id="defs4242"><clipPath
       clipPathUnits="userSpaceOnUse"
       id="clipPath4450"><path
         d="m 0.059998,86.736 230.478002,0 0,-86.736 -230.478002,0 0,86.736 z"
         id="path4452"
         inkscape:connector-curvature="0" /></clipPath></defs><sodipodi:namedview
     pagecolor="#ffffff"
     bordercolor="#666666"
     borderopacity="1"
     objecttolerance="10"
     gridtolerance="10"
     guidetolerance="10"
     inkscape:pageopacity="0"
     inkscape:pageshadow="2"
     inkscape:window-width="1389"
     inkscape:window-height="919"
     id="namedview4240"
     showgrid="false"
     inkscape:zoom="1.4192889"
     inkscape:cx="128.2572"
     inkscape:cy="72.946649"
     inkscape:window-x="2107"
     inkscape:window-y="52"
     inkscape:window-maximized="0"
     inkscape:current-layer="g4246" /><g
     id="g4246"
     inkscape:groupmode="layer"
     inkscape:label="Claim_HSE_blau_CMYK_D"
     transform="matrix(1.25,0,0,-1.25,0,108.42)"><g
       id="g4337"><g
         id="g4237"><g
           id="g4248"
           transform="translate(21.102,0.23389)"
           style="fill:#193058;fill-opacity:1"><path
             d="M 0,0 -5.096,7.6884 -5.492,8.4091 C -5.564,8.5527 -5.6,8.625 -5.654,8.8232 l 0,-8.71479 -2.161,0 0,11.88359 2.611,0 4.807,-7.5262 C -0.054,3.9257 0.09,3.5478 0.234,3.1689 l 0,8.8231 2.143,0 L 2.377,0 0,0"
             style="fill:#193058;fill-opacity:1;fill-rule:nonzero;stroke:none"
             id="path4250"
             inkscape:connector-curvature="0" /></g><g
           id="g4252"
           transform="translate(30.049,4.0698)"
           style="fill:#193058;fill-opacity:1"><path
             d="m 0,0 -2.142,-0.7022 c -0.127,-0.3242 -0.163,-0.4863 -0.163,-0.7031 0,-0.54 0.324,-0.8642 0.865,-0.8642 0.269,0 0.593,0.0908 0.881,0.2529 0.145,0.0713 0.252,0.1435 0.559,0.3779 L 0,0 Z m 2.484,-3.8359 -0.45,0 c -1.08,0 -1.423,0.1806 -1.801,0.9189 -0.792,-0.7207 -1.494,-1.0264 -2.34,-1.0264 -1.422,0 -2.431,0.9366 -2.431,2.2686 0,0.2881 0.055,0.5762 0.145,0.8457 0.288,0.7744 0.792,1.1709 2.016,1.5312 L 0,1.3857 0,2.0879 c 0,0.9004 -0.324,1.3144 -1.026,1.3144 -0.649,0 -1.171,-0.3418 -1.171,-0.7558 0,-0.0723 0.018,-0.1084 0.055,-0.2158 L -4.195,1.9805 c -0.091,0.2519 -0.109,0.3418 -0.109,0.5761 0,1.4766 1.296,2.3223 3.566,2.3223 1.998,0 2.898,-0.8281 2.898,-2.665 l 0,-3.4922 c 0,-0.7569 0.09,-0.8828 0.666,-0.9365 L 2.484,-3.8359"
             style="fill:#193058;fill-opacity:1;fill-rule:nonzero;stroke:none"
             id="path4254"
             inkscape:connector-curvature="0" /></g><g
           id="g4256"
           transform="translate(39.939,0.3423)"
           style="fill:#193058;fill-opacity:1"><path
             d="m 0,0 0,5.3837 c 0,1.044 -0.181,1.4219 -0.702,1.4219 -0.45,0 -1.081,-0.4502 -2.017,-1.458 l -0.288,-0.3066 0,-5.041 -2.161,0 0,13.126 2.161,0 0,-6.1397 c 1.008,1.0976 1.836,1.5478 2.899,1.5478 1.512,0 2.268,-0.792 2.268,-2.3759 L 2.16,0 0,0"
             style="fill:#193058;fill-opacity:1;fill-rule:nonzero;stroke:none"
             id="path4258"
             inkscape:connector-curvature="0" /></g><g
           id="g4260"
           transform="translate(53.097,3.9619)"
           style="fill:#193058;fill-opacity:1"><path
             d="m 0,0 -2.144,-0.7022 c -0.126,-0.3242 -0.161,-0.4863 -0.161,-0.7031 0,-0.54 0.324,-0.8642 0.865,-0.8642 0.269,0 0.593,0.0908 0.881,0.2529 0.144,0.0713 0.252,0.1435 0.559,0.3779 L 0,0 Z m 2.484,-3.836 -0.45,0 c -1.08,0 -1.423,0.1807 -1.801,0.919 -0.792,-0.7207 -1.494,-1.0264 -2.34,-1.0264 -1.422,0 -2.431,0.9365 -2.431,2.2686 0,0.2881 0.055,0.5762 0.144,0.8457 0.289,0.7744 0.792,1.1709 2.017,1.5312 L 0,1.3857 0,2.0879 c 0,0.9004 -0.324,1.3144 -1.026,1.3144 -0.649,0 -1.171,-0.3418 -1.171,-0.7558 0,-0.0723 0.018,-0.1084 0.053,-0.2159 L -4.195,1.9805 c -0.091,0.2519 -0.109,0.3418 -0.109,0.5761 0,1.4766 1.297,2.3223 3.566,2.3223 1.998,0 2.898,-0.8281 2.898,-2.665 l 0,-3.4922 c 0,-0.7569 0.09,-0.8828 0.666,-0.9366 L 2.484,-3.836"
             style="fill:#193058;fill-opacity:1;fill-rule:nonzero;stroke:none"
             id="path4262"
             inkscape:connector-curvature="0" /></g><g
           id="g4264"
           transform="translate(62.988,0.23429)"
           style="fill:#193058;fill-opacity:1"><path
             d="m 0,0 0,5.3838 c 0,1.044 -0.181,1.4219 -0.702,1.4219 -0.45,0 -1.081,-0.4502 -2.017,-1.458 l -0.288,-0.3066 0,-5.0411 -2.161,0 0,8.3721 2.161,0 0,-1.3857 c 1.008,1.0976 1.836,1.5478 2.899,1.5478 1.512,0 2.268,-0.792 2.268,-2.376 L 2.16,0 0,0"
             style="fill:#193058;fill-opacity:1;fill-rule:nonzero;stroke:none"
             id="path4266"
             inkscape:connector-curvature="0" /></g><g
           id="g4268"
           transform="translate(82.861,0.23429)"
           style="fill:#193058;fill-opacity:1"><path
             d="M 0,0 0,8.7149 C -0.091,8.1026 -0.072,8.0127 -0.45,7.0225 L -3.169,0 -5.204,0 -7.688,6.8965 C -7.94,7.5801 -7.959,7.7784 -8.139,8.7872 l 0,-8.7872 -2.052,0 0,11.884 2.718,0 3.169,-8.4806 c 0.126,-0.3428 0.18,-0.4688 0.235,-0.919 0.071,0.5586 0.107,0.6309 0.215,0.919 l 3.295,8.4806 2.719,0 L 2.16,0 0,0"
             style="fill:#193058;fill-opacity:1;fill-rule:nonzero;stroke:none"
             id="path4270"
             inkscape:connector-curvature="0" /></g><g
           id="g4272"
           transform="translate(90.93,7.2207)"
           style="fill:#193058;fill-opacity:1"><path
             d="m 0,0 c -0.954,0 -1.602,-0.6485 -1.782,-1.7832 l 3.277,0 C 1.441,-0.5039 1.009,0 0,0 Z M 2.755,-6.626 C 1.873,-7.0225 0.973,-7.2207 0,-7.2207 c -2.484,0 -4.051,1.6386 -4.051,4.1953 0,2.6474 1.801,4.6455 4.196,4.6455 2.07,0 3.51,-1.5664 3.51,-3.835 l 0,-0.9179 -5.545,0 c 0.036,-0.7022 0.09,-0.9903 0.288,-1.333 0.36,-0.6124 1.081,-1.0079 1.873,-1.0079 0.324,0 0.648,0.0362 0.99,0.1436 0.504,0.1445 0.828,0.3066 1.602,0.793 L 3.655,-6.1758 C 3.26,-6.3926 2.953,-6.5362 2.755,-6.626"
             style="fill:#193058;fill-opacity:1;fill-rule:nonzero;stroke:none"
             id="path4274"
             inkscape:connector-curvature="0" /></g><g
           id="g4276"
           transform="translate(101.38,0.23429)"
           style="fill:#193058;fill-opacity:1"><path
             d="m 0,0 0,5.3838 c 0,1.044 -0.18,1.4219 -0.702,1.4219 -0.45,0 -1.081,-0.4502 -2.016,-1.458 l -0.288,-0.3066 0,-5.0411 -2.162,0 0,8.3721 2.162,0 0,-1.3857 c 1.007,1.0976 1.835,1.5478 2.898,1.5478 1.513,0 2.269,-0.792 2.269,-2.376 L 2.161,0 0,0"
             style="fill:#193058;fill-opacity:1;fill-rule:nonzero;stroke:none"
             id="path4278"
             inkscape:connector-curvature="0" /></g><g
           id="g4280"
           transform="translate(111.504,6.2842)"
           style="fill:#193058;fill-opacity:1"><path
             d="m 0,0 c -0.215,0.1435 -0.414,0.2705 -0.576,0.3603 -0.594,0.3594 -1.314,0.5762 -1.927,0.5762 -0.828,0 -1.368,-0.3242 -1.368,-0.793 0,-0.3779 0.288,-0.6113 1.045,-0.8818 0.936,-0.3242 2.143,-0.8819 2.521,-1.1524 0.521,-0.3779 0.864,-1.1162 0.864,-1.8545 0,-1.5302 -1.333,-2.539 -3.35,-2.539 -0.414,0 -0.864,0.0547 -1.368,0.1621 -0.774,0.1621 -1.152,0.3066 -2.07,0.7744 l 0.683,1.7471 c 0.847,-0.5225 1.189,-0.6846 1.801,-0.8828 0.324,-0.1084 0.63,-0.1622 0.937,-0.1622 0.828,0 1.314,0.2706 1.314,0.7207 0,0.378 -0.27,0.6661 -0.846,0.8819 l -1.441,0.5586 c -1.476,0.5761 -2.16,1.3496 -2.16,2.4668 0,1.5664 1.368,2.6279 3.402,2.6279 0.397,0 0.866,-0.0537 1.387,-0.1621 C -0.36,2.2871 -0.072,2.1787 0.685,1.746 L 0,0"
             style="fill:#193058;fill-opacity:1;fill-rule:nonzero;stroke:none"
             id="path4282"
             inkscape:connector-curvature="0" /></g><g
           id="g4284"
           transform="translate(117.579,0)"
           style="fill:#193058;fill-opacity:1"><path
             d="m 0,0 c -2.593,0 -4.268,1.7109 -4.268,4.3398 0,2.7002 1.783,4.5195 4.448,4.5195 0.468,0 0.918,-0.0546 1.368,-0.1445 C 2.161,8.5713 2.449,8.4453 3.151,8.0302 L 2.125,6.3925 C 1.494,6.8779 1.08,7.04 0.432,7.04 c -1.423,0 -2.43,-1.1162 -2.43,-2.6826 0,-1.4941 0.9,-2.5205 2.196,-2.5205 0.72,0 1.242,0.1797 2.161,0.7197 L 3.151,0.8105 C 1.98,0.2168 1.045,0 0,0"
             style="fill:#193058;fill-opacity:1;fill-rule:nonzero;stroke:none"
             id="path4286"
             inkscape:connector-curvature="0" /></g><g
           id="g4288"
           transform="translate(127.362,0.23429)"
           style="fill:#193058;fill-opacity:1"><path
             d="m 0,0 0,5.3838 c 0,1.044 -0.181,1.4219 -0.701,1.4219 -0.451,0 -1.081,-0.4502 -2.017,-1.458 l -0.288,-0.3066 0,-5.0411 -2.161,0 0,13.126 2.161,0 0,-6.1396 c 1.008,1.0976 1.836,1.5478 2.897,1.5478 1.513,0 2.268,-0.792 2.268,-2.376 L 2.159,0 0,0"
             style="fill:#193058;fill-opacity:1;fill-rule:nonzero;stroke:none"
             id="path4290"
             inkscape:connector-curvature="0" /></g><g
           id="g4292"
           transform="translate(141.289,0.23429)"
           style="fill:#193058;fill-opacity:1"><path
             d="m 0,0 0,1.4043 c -1.009,-1.11619 -1.837,-1.5488 -2.899,-1.5488 -1.512,0 -2.269,0.7744 -2.269,2.3594 l 0,6.1572 2.161,0 0,-5.3828 c 0,-1.0264 0.18,-1.4228 0.684,-1.4228 0.469,0 1.098,0.4677 2.035,1.4589 L 0,3.3311 l 0,5.041 2.16,0 L 2.16,0 0,0"
             style="fill:#193058;fill-opacity:1;fill-rule:nonzero;stroke:none"
             id="path4294"
             inkscape:connector-curvature="0" /></g><path
           inkscape:connector-curvature="0"
           id="path4298"
           style="fill:#193058;fill-opacity:1;fill-rule:nonzero;stroke:none"
           d="m 151.217,0.23429 0,5.3838 c 0,1.044 -0.181,1.4219 -0.702,1.4219 -0.451,0 -1.081,-0.4502 -2.017,-1.458 l -0.288,-0.3066 0,-5.0411 -2.161,0 0,8.3721 2.161,0 0,-1.3857 c 1.008,1.0976 1.836,1.5478 2.898,1.5478 1.513,0 2.269,-0.792 2.269,-2.376 l 0,-6.1582 -2.16,0" /><g
           id="g4300"
           transform="translate(160.909,5.2402)"
           style="fill:#193058;fill-opacity:1"><path
             d="m 0,0 c 0,0.4678 -0.055,0.9004 -0.108,1.0801 -0.144,0.4502 -0.738,0.7744 -1.405,0.7744 -1.188,0 -2.07,-1.1709 -2.07,-2.7549 0,-1.5127 0.702,-2.5752 1.729,-2.5752 0.666,0 1.332,0.4502 1.854,1.2608 L 0,0 Z m 0,-5.0059 0,1.1348 c -0.306,-0.4863 -0.45,-0.6484 -0.846,-0.9004 -0.487,-0.3066 -1.008,-0.4687 -1.567,-0.4687 -1.98,0 -3.438,1.7646 -3.438,4.1777 0,2.5928 1.782,4.6816 3.997,4.6816 0.233,0 0.485,-0.0361 0.738,-0.0908 C -0.666,3.4209 -0.469,3.3486 0,3.0244 l 0,5.0956 2.143,0 0,-13.1259 -2.143,0"
             style="fill:#193058;fill-opacity:1;fill-rule:nonzero;stroke:none"
             id="path4302"
             inkscape:connector-curvature="0" /></g><g
           id="g4304"
           transform="translate(175.126,10.191)"
           style="fill:#193058;fill-opacity:1"><path
             d="m 0,0 0,-9.9571 -2.269,0 0,9.9571 -3.564,0 0,1.927 9.398,0 L 3.565,0 0,0"
             style="fill:#193058;fill-opacity:1;fill-rule:nonzero;stroke:none"
             id="path4306"
             inkscape:connector-curvature="0" /></g><g
           id="g4308"
           transform="translate(181.418,7.2207)"
           style="fill:#193058;fill-opacity:1"><path
             d="m 0,0 c -0.954,0 -1.602,-0.6485 -1.782,-1.7832 l 3.277,0 C 1.441,-0.5039 1.009,0 0,0 Z M 2.755,-6.626 C 1.873,-7.0225 0.973,-7.2207 0,-7.2207 c -2.484,0 -4.051,1.6386 -4.051,4.1953 0,2.6474 1.801,4.6455 4.196,4.6455 2.07,0 3.51,-1.5664 3.51,-3.835 l 0,-0.9179 -5.545,0 c 0.035,-0.7022 0.09,-0.9903 0.288,-1.333 0.36,-0.6124 1.08,-1.0079 1.872,-1.0079 0.325,0 0.649,0.0362 0.991,0.1436 0.504,0.1445 0.828,0.3066 1.602,0.793 L 3.655,-6.1758 C 3.26,-6.3926 2.953,-6.5362 2.755,-6.626"
             style="fill:#193058;fill-opacity:1;fill-rule:nonzero;stroke:none"
             id="path4310"
             inkscape:connector-curvature="0" /></g><g
           id="g4312"
           transform="translate(190.708,0)"
           style="fill:#193058;fill-opacity:1"><path
             d="m 0,0 c -2.593,0 -4.268,1.7109 -4.268,4.3398 0,2.7002 1.784,4.5195 4.449,4.5195 0.467,0 0.918,-0.0546 1.368,-0.1445 0.612,-0.1435 0.9,-0.2695 1.602,-0.6846 L 2.125,6.3925 C 1.494,6.8779 1.08,7.04 0.433,7.04 c -1.423,0 -2.431,-1.1162 -2.431,-2.6826 0,-1.4941 0.9,-2.5205 2.196,-2.5205 0.72,0 1.242,0.1797 2.161,0.7197 L 3.151,0.8105 C 1.98,0.2168 1.045,0 0,0"
             style="fill:#193058;fill-opacity:1;fill-rule:nonzero;stroke:none"
             id="path4314"
             inkscape:connector-curvature="0" /></g><g
           id="g4316"
           transform="translate(200.703,0.23429)"
           style="fill:#193058;fill-opacity:1"><path
             d="m 0,0 0,5.3838 c 0,1.044 -0.181,1.4219 -0.702,1.4219 -0.45,0 -1.081,-0.4502 -2.017,-1.458 l -0.288,-0.3066 0,-5.0411 -2.161,0 0,13.126 2.161,0 0,-6.1396 c 1.008,1.0976 1.836,1.5478 2.899,1.5478 1.512,0 2.268,-0.792 2.268,-2.376 L 2.16,0 0,0"
             style="fill:#193058;fill-opacity:1;fill-rule:nonzero;stroke:none"
             id="path4318"
             inkscape:connector-curvature="0" /></g><g
           id="g4320"
           transform="translate(210.558,0.23429)"
           style="fill:#193058;fill-opacity:1"><path
             d="m 0,0 0,5.3838 c 0,1.044 -0.181,1.4219 -0.703,1.4219 -0.45,0 -1.081,-0.4502 -2.016,-1.458 l -0.288,-0.3066 0,-5.0411 -2.161,0 0,8.3721 2.161,0 0,-1.3857 c 1.008,1.0976 1.836,1.5478 2.898,1.5478 1.513,0 2.269,-0.792 2.269,-2.376 L 2.16,0 0,0"
             style="fill:#193058;fill-opacity:1;fill-rule:nonzero;stroke:none"
             id="path4322"
             inkscape:connector-curvature="0" /></g><g
           id="g4324"
           transform="translate(215.119,0.23429)"
           style="fill:#193058;fill-opacity:1"><path
             d="M 2.143,0 0,0 l 0,8.3721 2.143,0 L 2.143,0 Z M 0,0 Z m 1.08,9.921 c -0.666,0 -1.223,0.648 -1.223,1.458 0,0.811 0.557,1.459 1.223,1.459 0.666,0 1.207,-0.648 1.207,-1.459 0,-0.81 -0.541,-1.458 -1.207,-1.458"
             style="fill:#193058;fill-opacity:1;fill-rule:nonzero;stroke:none"
             id="path4326"
             inkscape:connector-curvature="0" /></g><g
           id="g4328"
           transform="translate(224.346,0.23429)"
           style="fill:#193058;fill-opacity:1"><path
             d="m 0,0 -2.611,4.3038 0,-4.3038 -2.142,0 0,13.126 2.142,0 0,-8.372 2.611,3.6181 2.413,0 L -0.594,4.5196 2.449,0 0,0"
             style="fill:#193058;fill-opacity:1;fill-rule:nonzero;stroke:none"
             id="path4330"
             inkscape:connector-curvature="0" /></g><g
           id="g4332"
           transform="translate(229.115,0)"
           style="fill:#193058;fill-opacity:1"><path
             d="m 0,0 c -0.792,0 -1.44,0.6484 -1.44,1.4404 0,0.8105 0.648,1.4404 1.44,1.4404 0.792,0 1.423,-0.6299 1.423,-1.4404 C 1.423,0.6484 0.792,0 0,0"
             style="fill:#193058;fill-opacity:1;fill-rule:nonzero;stroke:none"
             id="path4334"
             inkscape:connector-curvature="0" /></g></g><g
         transform="translate(227.158,63.453)"
         id="g4336"><path
           inkscape:connector-curvature="0"
           id="path4338"
           style="fill:#da1f3d;fill-opacity:1;fill-rule:nonzero;stroke:none"
           d="m 0,0 0,7.898 c 0,2.032 -0.969,3.047 -2.914,3.047 -1.358,0 -2.422,-0.578 -3.715,-1.984 l 0,1.776 -2.768,0 0,-10.737 2.768,0 0,6.467 0.371,0.394 c 1.201,1.291 2.013,1.868 2.586,1.868 0.668,0 0.904,-0.483 0.904,-1.824 L -2.768,0 0,0 Z m -14.551,6.676 -4.203,0 c 0.232,1.454 1.064,2.285 2.289,2.285 1.289,0 1.849,-0.647 1.914,-2.285 m 2.771,-5.637 -1.017,2.104 c -0.992,-0.625 -1.405,-0.832 -2.053,-1.018 -0.439,-0.138 -0.857,-0.184 -1.266,-0.184 -1.021,0 -1.941,0.508 -2.406,1.291 -0.254,0.442 -0.324,0.811 -0.367,1.709 l 7.109,0 0,1.18 c 0,2.908 -1.849,4.917 -4.5,4.917 -3.074,0 -5.379,-2.561 -5.379,-5.956 0,-3.278 2.008,-5.383 5.194,-5.383 1.244,0 2.4,0.255 3.533,0.764 0.253,0.115 0.643,0.3 1.152,0.576 m -13.899,-2.355 c 0,-0.418 -0.301,-0.904 -0.807,-1.296 -0.651,-0.531 -1.549,-0.831 -2.383,-0.831 -1.268,0 -2.263,0.535 -2.263,1.203 0,0.275 0.185,0.691 0.509,1.222 0.069,0.072 0.139,0.209 0.233,0.372 l 3.344,0 c 0.927,0 1.367,-0.233 1.367,-0.67 m -1.25,8.359 c 0,-1.107 -0.787,-1.984 -1.779,-1.984 -0.991,0 -1.776,0.877 -1.776,1.962 0,1.109 0.785,2.033 1.756,2.033 0.992,0 1.799,-0.902 1.799,-2.011 m 4.228,1.619 0,2.075 -2.17,-0.137 -1.593,0 c -1.018,0.345 -1.457,0.438 -2.244,0.438 -2.838,0 -4.592,-1.569 -4.592,-4.133 0,-1.014 0.324,-1.893 0.945,-2.633 0.252,-0.299 0.465,-0.461 0.949,-0.829 -0.302,-0.232 -0.535,-0.371 -0.672,-0.486 -1.037,-0.694 -1.406,-1.178 -1.406,-1.802 0,-0.645 0.438,-1.063 1.502,-1.456 -1.248,-1.064 -1.713,-1.777 -1.713,-2.607 0,-1.62 1.778,-2.705 4.412,-2.705 3.604,0 6.19,1.941 6.19,4.618 0,1.733 -0.994,2.589 -3.096,2.589 l -3.764,0 c -0.531,0 -0.714,0.069 -0.714,0.299 0,0.279 0.345,0.625 1.06,1.156 0.346,-0.069 0.508,-0.069 0.785,-0.069 2.819,0 4.711,1.639 4.711,4.086 0,0.696 -0.113,1.064 -0.484,1.596 l 1.894,0 z M -36.142,0 l 0,7.898 c 0,2.032 -0.971,3.047 -2.912,3.047 -1.358,0 -2.422,-0.578 -3.715,-1.984 l 0,1.776 -2.77,0 0,-10.737 2.77,0 0,6.467 0.369,0.394 c 1.199,1.291 2.008,1.868 2.586,1.868 0.67,0 0.9,-0.483 0.9,-1.824 l 0,-6.905 2.772,0 z m -12.865,10.737 -2.746,0 0,-10.737 2.746,0 0,10.737 z m 0.187,3.859 c 0,1.039 -0.693,1.871 -1.545,1.871 -0.857,0 -1.574,-0.832 -1.574,-1.871 0,-1.041 0.717,-1.871 1.574,-1.871 0.852,0 1.545,0.83 1.545,1.871 m -6.258,2.24 -2.748,0 0,-16.836 2.748,0 0,16.836 z M -60.39,9.997 c -0.973,0.557 -1.34,0.694 -2.356,0.901 -0.671,0.14 -1.267,0.209 -1.779,0.209 -2.611,0 -4.365,-1.361 -4.365,-3.37 0,-1.432 0.877,-2.448 2.773,-3.165 l 1.846,-0.715 c 0.738,-0.275 1.086,-0.646 1.086,-1.132 0,-0.577 -0.623,-0.921 -1.686,-0.921 -0.392,0 -0.783,0.067 -1.201,0.206 -0.785,0.253 -1.222,0.463 -2.31,1.133 L -69.257,0.9 c 1.177,-0.601 1.662,-0.787 2.654,-0.995 0.648,-0.137 1.225,-0.206 1.758,-0.206 2.586,0 4.293,1.297 4.293,3.258 0,0.945 -0.44,1.916 -1.11,2.379 -0.482,0.369 -2.031,1.06 -3.232,1.477 -0.969,0.349 -1.34,0.648 -1.34,1.132 0,0.601 0.695,1.016 1.76,1.016 0.781,0 1.703,-0.277 2.467,-0.739 0.207,-0.115 0.461,-0.277 0.738,-0.46 l 0.879,2.235 z m -10.668,0 c -0.973,0.557 -1.34,0.694 -2.359,0.901 -0.668,0.14 -1.27,0.209 -1.776,0.209 -2.609,0 -4.365,-1.361 -4.365,-3.37 0,-1.432 0.877,-2.448 2.769,-3.165 l 1.848,-0.715 c 0.742,-0.275 1.086,-0.646 1.086,-1.132 0,-0.577 -0.621,-0.921 -1.687,-0.921 -0.389,0 -0.78,0.067 -1.198,0.206 -0.785,0.253 -1.224,0.463 -2.31,1.133 L -79.929,0.9 c 1.178,-0.601 1.666,-0.787 2.658,-0.995 0.643,-0.137 1.223,-0.206 1.754,-0.206 2.588,0 4.297,1.297 4.297,3.258 0,0.945 -0.438,1.916 -1.108,2.379 -0.484,0.369 -2.033,1.06 -3.236,1.477 -0.969,0.349 -1.338,0.648 -1.338,1.132 0,0.601 0.692,1.016 1.754,1.016 0.787,0 1.709,-0.277 2.473,-0.739 0.207,-0.115 0.461,-0.277 0.738,-0.46 l 0.879,2.235 z M -81.8,0 l 0,2.473 -6.674,0 0,4.065 5.219,0 0,2.47 -5.219,0 0,3.763 6.375,0 0,2.469 -9.283,0 0,-15.24 9.582,0 z m -20.83,6.676 -4.203,0 c 0.232,1.454 1.062,2.285 2.287,2.285 1.295,0 1.847,-0.647 1.916,-2.285 m 2.775,-5.637 -1.021,2.104 c -0.989,-0.625 -1.407,-0.832 -2.053,-1.018 -0.438,-0.138 -0.854,-0.184 -1.272,-0.184 -1.013,0 -1.939,0.508 -2.4,1.291 -0.252,0.442 -0.322,0.811 -0.371,1.709 l 7.117,0 0,1.18 c 0,2.908 -1.85,4.917 -4.508,4.917 -3.068,0 -5.377,-2.561 -5.377,-5.956 0,-3.278 2.008,-5.383 5.194,-5.383 1.248,0 2.402,0.255 3.533,0.764 0.254,0.115 0.648,0.3 1.158,0.576 m -12.032,15.797 -2.75,0 0,-16.836 2.75,0 0,16.836 z M -117.894,0 l 0,10.737 -2.773,0 0,-6.465 -0.368,-0.391 c -1.201,-1.27 -2.011,-1.871 -2.607,-1.871 -0.65,0 -0.881,0.508 -0.881,1.824 l 0,6.903 -2.772,0 0,-7.895 c 0,-2.033 0.971,-3.028 2.909,-3.028 1.365,0 2.426,0.555 3.719,1.99 l 0,-1.804 2.773,0 z m -12.723,0 0,7.898 c 0,2.032 -0.971,3.047 -2.91,3.047 -1.365,0 -2.426,-0.578 -3.717,-1.984 l 0,7.875 -2.775,0 0,-16.836 2.775,0 0,6.467 0.367,0.394 c 1.203,1.291 2.008,1.868 2.588,1.868 0.668,0 0.899,-0.483 0.899,-1.824 l 0,-6.905 2.773,0 z m -11.455,0.738 -1.014,2.242 c -1.181,-0.692 -1.851,-0.925 -2.773,-0.925 -1.664,0 -2.817,1.318 -2.817,3.234 0,2.01 1.291,3.44 3.118,3.44 0.834,0 1.361,-0.208 2.172,-0.831 l 1.314,2.099 c -0.898,0.532 -1.268,0.694 -2.055,0.88 -0.578,0.113 -1.156,0.184 -1.756,0.184 -3.418,0 -5.701,-2.332 -5.701,-5.795 0,-3.373 2.145,-5.567 5.471,-5.567 1.062,0 2.146,0.206 3.143,0.623 0.207,0.094 0.505,0.232 0.898,0.416 m -11.129,9.259 c -0.971,0.557 -1.34,0.694 -2.357,0.901 -0.67,0.14 -1.268,0.209 -1.78,0.209 -2.609,0 -4.363,-1.361 -4.363,-3.37 0,-1.432 0.877,-2.448 2.77,-3.165 l 1.849,-0.715 c 0.74,-0.275 1.084,-0.646 1.084,-1.132 0,-0.577 -0.621,-0.921 -1.683,-0.921 -0.393,0 -0.786,0.067 -1.204,0.206 -0.783,0.253 -1.222,0.463 -2.31,1.133 L -162.072,0.9 c 1.178,-0.601 1.666,-0.787 2.658,-0.995 0.647,-0.137 1.225,-0.206 1.756,-0.206 2.586,0 4.295,1.297 4.295,3.258 0,0.945 -0.439,1.916 -1.11,2.379 -0.484,0.369 -2.031,1.06 -3.234,1.477 -0.97,0.349 -1.34,0.648 -1.34,1.132 0,0.601 0.696,1.016 1.756,1.016 0.787,0 1.709,-0.277 2.473,-0.739 0.207,-0.115 0.459,-0.277 0.738,-0.46 l 0.879,2.235 z M -164.473,0 l 0,7.898 c 0,2.032 -0.97,3.047 -2.91,3.047 -1.361,0 -2.423,-0.578 -3.718,-1.984 l 0,7.875 -2.772,0 0,-16.836 2.772,0 0,6.467 0.371,0.394 c 1.201,1.291 2.01,1.868 2.588,1.868 0.668,0 0.9,-0.483 0.9,-1.824 l 0,-6.905 2.769,0 z m -11.453,0.738 -1.017,2.242 c -1.178,-0.692 -1.848,-0.925 -2.772,-0.925 -1.664,0 -2.816,1.318 -2.816,3.234 0,2.01 1.291,3.44 3.117,3.44 0.832,0 1.362,-0.208 2.172,-0.831 l 1.316,2.099 c -0.9,0.532 -1.269,0.694 -2.056,0.88 -0.576,0.113 -1.154,0.184 -1.754,0.184 -3.418,0 -5.705,-2.332 -5.705,-5.795 0,-3.373 2.148,-5.567 5.473,-5.567 1.064,0 2.146,0.206 3.142,0.623 0.207,0.094 0.506,0.232 0.9,0.416 m -14.064,4.643 c 0,-1.916 -1.156,-3.488 -2.541,-3.488 -1.383,0 -2.541,1.572 -2.541,3.488 0,1.894 1.158,3.465 2.541,3.465 1.385,0 2.541,-1.571 2.541,-3.465 m 2.863,0 c 0,3.211 -2.332,5.657 -5.404,5.657 -3.072,0 -5.404,-2.446 -5.404,-5.657 0,-3.233 2.332,-5.682 5.404,-5.682 3.072,0 5.404,2.449 5.404,5.682 M -200.22,0 l 0,15.24 -2.913,0 0,-6.094 -7.828,0 0,6.094 -2.91,0 0,-15.24 2.91,0 0,6.538 7.828,0 0,-6.538" /></g><g
         id="g4282"><g
           id="g4340"
           transform="translate(21.152,42.058)"><path
             d="m 0,0 c -0.83,-0.675 -1.863,-1.03 -3.066,-1.03 -1.204,0 -2.254,0.355 -3.086,1.03 -0.93,0.767 -1.305,1.665 -1.305,3.12 l 0,7.354 1.389,0 0,-6.931 c 0,-1.39 0.103,-1.778 0.646,-2.37 0.559,-0.63 1.373,-0.967 2.338,-0.967 0.965,0 1.779,0.337 2.338,0.967 0.541,0.592 0.646,0.98 0.646,2.37 l 0,6.931 1.387,0 0,-7.354 C 1.287,1.63 0.932,0.767 0,0"
             style="fill:#6d6e70;fill-opacity:1;fill-rule:nonzero;stroke:none"
             id="path4342"
             inkscape:connector-curvature="0" /></g><g
           id="g4344"
           transform="translate(30.76,41.348)"><path
             d="m 0,0 0,5.438 c 0,0.509 -0.037,0.68 -0.121,0.897 -0.117,0.259 -0.422,0.411 -0.779,0.411 -0.778,0 -1.61,-0.574 -2.948,-2.052 l 0,-4.694 -1.271,0 0,7.676 1.271,0 0,-1.61 c 0.526,0.594 0.678,0.745 1.051,1.051 0.576,0.492 1.336,0.764 2.049,0.764 1.355,0 2.016,-0.697 2.016,-2.135 L 1.268,0"
             style="fill:#6d6e70;fill-opacity:1;fill-rule:nonzero;stroke:none"
             id="path4346"
             inkscape:connector-curvature="0" /></g><g
           id="g4348"
           transform="translate(35.061,49.023)"><path
             d="m 0,0 1.2735,0 0,-7.6758 L 0,-7.6758 0,0 Z m 0.643,1.848 c -0.455,0 -0.829,0.37 -0.829,0.829 0,0.46 0.374,0.831 0.829,0.831 0.461,0 0.834,-0.371 0.834,-0.831 0,-0.459 -0.373,-0.829 -0.834,-0.829"
             style="fill:#6d6e70;fill-opacity:1;fill-rule:nonzero;stroke:none"
             id="path4350"
             inkscape:connector-curvature="0" /></g><g
           id="g4352"
           transform="translate(42.312,41.129)"><path
             d="m 0,0 -1.168,0 -2.881,7.895 1.389,0 2.119,-6.219 0.033,-0.305 0.016,0.289 2.086,6.235 1.388,0"
             style="fill:#6d6e70;fill-opacity:1;fill-rule:nonzero;stroke:none"
             id="path4354"
             inkscape:connector-curvature="0" /></g><g
           id="g4356"
           transform="translate(50.004,48.074)"><path
             d="m 0,0 c -1.064,0 -1.81,-0.642 -2.1,-1.828 l 3.762,0 C 1.647,-0.642 1.051,0 0,0 m -2.201,-2.777 c 0,-1.865 0.949,-3 2.508,-3 0.675,0 1.168,0.185 2,0.763 l 0.505,-1.003 c -1.134,-0.71 -1.777,-0.93 -2.775,-0.93 -2.137,0 -3.576,1.627 -3.576,4.048 0,2.441 1.439,4.053 3.623,4.053 1.797,0 2.967,-1.271 2.967,-3.187 l 0,-0.744"
             style="fill:#6d6e70;fill-opacity:1;fill-rule:nonzero;stroke:none"
             id="path4358"
             inkscape:connector-curvature="0" /></g><g
           id="g4360"
           transform="translate(58.951,47.634)"><path
             d="m 0,0 c -0.256,0.222 -0.391,0.308 -0.543,0.308 -0.473,0 -1.086,-0.696 -1.813,-2.02 l 0,-4.574 -1.273,0 0,7.676 1.273,0 0,-1.39 c 0.95,1.222 1.424,1.595 1.999,1.595 0.289,0 0.644,-0.188 0.982,-0.529"
             style="fill:#6d6e70;fill-opacity:1;fill-rule:nonzero;stroke:none"
             id="path4362"
             inkscape:connector-curvature="0" /></g><g
           id="g4364"
           transform="translate(63.645,41.129)"><path
             d="m 0,0 c -0.322,0 -0.678,0.033 -1.068,0.102 -0.729,0.134 -1.051,0.252 -1.813,0.644 l 0.527,1.067 c 0.254,-0.137 0.44,-0.239 0.575,-0.305 0.541,-0.254 1.22,-0.426 1.763,-0.426 0.778,0 1.356,0.426 1.356,1.019 0,0.186 -0.069,0.407 -0.152,0.526 -0.307,0.439 -0.665,0.658 -2.036,1.22 -1.49,0.625 -2,1.149 -2,2.082 0,1.337 1.118,2.168 2.916,2.168 0.321,0 0.662,-0.015 0.981,-0.085 C 1.625,7.913 1.896,7.793 2.541,7.438 L 1.914,6.402 c -0.49,0.307 -0.711,0.409 -1.1,0.511 -0.308,0.083 -0.593,0.136 -0.882,0.136 -0.866,0 -1.424,-0.391 -1.424,-0.967 0,-0.187 0.068,-0.355 0.187,-0.473 C -1,5.303 -0.799,5.184 0.59,4.604 2.221,3.929 2.676,3.406 2.676,2.203 2.676,0.832 1.678,0 0,0"
             style="fill:#6d6e70;fill-opacity:1;fill-rule:nonzero;stroke:none"
             id="path4366"
             inkscape:connector-curvature="0" /></g><g
           id="g4368"
           transform="translate(68.979,49.023)"><path
             d="m 0,0 1.2735,0 0,-7.6758 L 0,-7.6758 0,0 Z m 0.645,1.848 c -0.456,0 -0.831,0.37 -0.831,0.829 0,0.46 0.375,0.831 0.831,0.831 0.459,0 0.832,-0.371 0.832,-0.831 0,-0.459 -0.373,-0.829 -0.832,-0.829"
             style="fill:#6d6e70;fill-opacity:1;fill-rule:nonzero;stroke:none"
             id="path4370"
             inkscape:connector-curvature="0" /></g><g
           id="g4372"
           transform="translate(74.91,41.129)"><path
             d="m 0,0 c -0.881,0 -1.473,0.695 -1.473,1.711 l 0,5.115 -1.287,0 0,0.745 1.287,0.324 0,2.238 1.27,0 0,-2.238 2.033,0 0,-1.069 -2.033,0 0,-4.369 0.017,-0.338 C -0.17,1.879 -0.17,1.729 -0.152,1.643 -0.135,1.388 0.017,1.27 0.291,1.27 c 0.32,0 0.574,0.134 1.114,0.543 L 1.932,0.965 C 1.033,0.219 0.611,0 0,0"
             style="fill:#6d6e70;fill-opacity:1;fill-rule:nonzero;stroke:none"
             id="path4374"
             inkscape:connector-curvature="0" /></g><g
           id="g4376"
           transform="translate(81.01,40.925)"><path
             d="m 0,0 c -0.359,-0.95 -0.643,-1.577 -1.066,-2.258 -0.307,-0.487 -0.53,-0.811 -1.155,-1.609 l -1.013,0.782 c 0.759,0.848 1.013,1.188 1.455,1.982 0.422,0.745 0.627,1.205 1.066,2.374 l -2.846,6.828 1.422,0 1.846,-4.694 0.256,-0.744 0.168,0.744 1.576,4.694 1.307,0"
             style="fill:#6d6e70;fill-opacity:1;fill-rule:nonzero;stroke:none"
             id="path4378"
             inkscape:connector-curvature="0" /></g><g
           id="g4380"
           transform="translate(92.971,48.094)"><path
             d="m 0,0 c -1.354,0 -2.405,-1.289 -2.405,-2.919 0,-1.625 1.051,-2.913 2.405,-2.913 1.338,0 2.391,1.288 2.391,2.913 C 2.391,-1.289 1.338,0 0,0 m 0,-6.967 c -2.084,0 -3.795,1.848 -3.795,4.048 0,2.222 1.711,4.054 3.795,4.054 2.068,0 3.779,-1.832 3.779,-4.054 0,-2.2 -1.711,-4.048 -3.779,-4.048"
             style="fill:#6d6e70;fill-opacity:1;fill-rule:nonzero;stroke:none"
             id="path4382"
             inkscape:connector-curvature="0" /></g><g
           id="g4384"
           transform="translate(103.848,52.43)"><path
             d="m 0,0 c -0.541,0.184 -0.864,0.253 -1.252,0.253 -1.31,0 -1.95,-0.878 -1.95,-2.71 l 0,-0.949 1.813,0 0,-1.067 -1.813,0 0,-6.609 -1.271,0 0,6.609 -1.287,0 0,0.746 1.287,0.321 0,1.268 c 0,2.189 1.288,3.574 3.305,3.574 0.643,0 1.098,-0.096 1.692,-0.37"
             style="fill:#6d6e70;fill-opacity:1;fill-rule:nonzero;stroke:none"
             id="path4386"
             inkscape:connector-curvature="0" /></g><g
           id="g4388"
           transform="translate(112.379,51.039)"><path
             d="m 0,0 -1.83,-5.117 3.641,0 L 0,0 Z m 3.405,-9.691 -1.155,3.306 -4.523,0 -1.151,-3.306 -1.492,0 4.168,11.503 1.494,0 4.147,-11.503"
             style="fill:#6d6e70;fill-opacity:1;fill-rule:nonzero;stroke:none"
             id="path4390"
             inkscape:connector-curvature="0" /></g><g
           id="g4392"
           transform="translate(122.645,48.041)"><path
             d="m 0,0 c -0.459,0 -1.018,-0.205 -1.492,-0.522 -0.303,-0.224 -0.475,-0.392 -0.832,-0.852 l 0,-2.659 c 0,-0.66 0.019,-0.746 0.152,-1 0.256,-0.441 0.766,-0.66 1.545,-0.66 1.623,0 2.674,1.187 2.674,3.033 C 2.047,-1.119 1.187,0 0,0 m -0.492,-6.897 c -0.813,0 -1.34,0.155 -1.832,0.528 l 0,-4.375 -1.27,0 0,11.726 1.27,0 0,-0.965 c 0.644,0.747 1.558,1.188 2.527,1.188 1.896,0 3.219,-1.574 3.219,-3.848 0,-2.476 -1.645,-4.254 -3.914,-4.254"
             style="fill:#6d6e70;fill-opacity:1;fill-rule:nonzero;stroke:none"
             id="path4394"
             inkscape:connector-curvature="0" /></g><g
           id="g4396"
           transform="translate(132.028,48.041)"><path
             d="m 0,0 c -0.459,0 -1.016,-0.205 -1.491,-0.522 -0.306,-0.224 -0.474,-0.392 -0.83,-0.852 l 0,-2.659 c 0,-0.66 0.018,-0.746 0.151,-1 0.256,-0.441 0.763,-0.66 1.543,-0.66 1.623,0 2.677,1.187 2.677,3.033 C 2.05,-1.119 1.187,0 0,0 m -0.494,-6.897 c -0.811,0 -1.336,0.155 -1.827,0.528 l 0,-4.375 -1.271,0 0,11.726 1.271,0 0,-0.965 c 0.645,0.747 1.557,1.188 2.524,1.188 1.9,0 3.217,-1.574 3.217,-3.848 0,-2.476 -1.639,-4.254 -3.914,-4.254"
             style="fill:#6d6e70;fill-opacity:1;fill-rule:nonzero;stroke:none"
             id="path4398"
             inkscape:connector-curvature="0" /></g><path
           d="m 137.756,41.348 1.27,0 0,12.353 -1.27,0 0,-12.353 z"
           style="fill:#6d6e70;fill-opacity:1;fill-rule:nonzero;stroke:none"
           id="path4400"
           inkscape:connector-curvature="0" /><g
           id="g4402"
           transform="translate(142.059,49.023)"><path
             d="m 0,0 1.269,0 0,-7.6758 -1.269,0 L 0,0 Z m 0.641,1.848 c -0.454,0 -0.829,0.37 -0.829,0.829 0,0.46 0.375,0.831 0.829,0.831 0.457,0 0.834,-0.371 0.834,-0.831 0,-0.459 -0.377,-0.829 -0.834,-0.829"
             style="fill:#6d6e70;fill-opacity:1;fill-rule:nonzero;stroke:none"
             id="path4404"
             inkscape:connector-curvature="0" /></g><g
           id="g4406"
           transform="translate(149.241,48.074)"><path
             d="m 0,0 c -1.067,0 -1.813,-0.642 -2.098,-1.828 l 3.758,0 C 1.646,-0.642 1.05,0 0,0 m -2.204,-2.777 c 0,-1.865 0.95,-3 2.514,-3 0.674,0 1.164,0.185 1.996,0.763 l 0.508,-1.003 c -1.133,-0.71 -1.781,-0.93 -2.781,-0.93 -2.131,0 -3.574,1.627 -3.574,4.048 0,2.441 1.443,4.053 3.625,4.053 1.798,0 2.966,-1.271 2.966,-3.187 l 0,-0.744"
             style="fill:#6d6e70;fill-opacity:1;fill-rule:nonzero;stroke:none"
             id="path4408"
             inkscape:connector-curvature="0" /></g><g
           id="g4410"
           transform="translate(159.578,46.348)"><path
             d="m 0,0 c 0,0.592 -0.017,0.761 -0.152,1.016 -0.223,0.423 -0.764,0.644 -1.543,0.644 -1.627,0 -2.68,-1.172 -2.68,-3.016 0,-1.542 0.866,-2.66 2.055,-2.66 0.457,0 1.013,0.184 1.488,0.526 0.288,0.2 0.477,0.388 0.832,0.83 L 0,0 Z m 0,-5 0,0.969 c -0.679,-0.767 -1.576,-1.19 -2.546,-1.19 -1.879,0 -3.2,1.578 -3.2,3.848 0,2.473 1.647,4.251 3.916,4.251 0.815,0 1.34,-0.151 1.83,-0.525 l 0,5 1.286,0 0,-12.353"
             style="fill:#6d6e70;fill-opacity:1;fill-rule:nonzero;stroke:none"
             id="path4412"
             inkscape:connector-curvature="0" /></g><g
           id="g4414"
           transform="translate(173.994,50.633)"><path
             d="m 0,0 c -0.578,0.34 -0.812,0.457 -1.173,0.574 -0.42,0.139 -1.1,0.239 -1.539,0.239 -1.272,0 -2.137,-0.625 -2.137,-1.575 0,-0.832 0.492,-1.255 2.764,-2.457 0.761,-0.406 1.359,-0.781 1.763,-1.137 0.539,-0.456 0.86,-1.219 0.86,-2.031 0,-1.916 -1.42,-3.117 -3.674,-3.117 -0.764,0 -1.475,0.135 -2.067,0.371 -0.422,0.17 -0.711,0.34 -1.441,0.83 l 0.713,1.103 c 0.625,-0.425 0.896,-0.577 1.289,-0.73 0.49,-0.183 1.033,-0.287 1.609,-0.287 1.319,0 2.117,0.626 2.117,1.693 0,0.324 -0.052,0.594 -0.171,0.797 -0.184,0.34 -0.506,0.662 -0.948,0.915 -0.188,0.101 -0.814,0.423 -1.865,0.999 -1.676,0.901 -2.389,1.781 -2.389,2.932 0,1.779 1.477,2.967 3.692,2.967 0.646,0 1.308,-0.086 1.883,-0.274 0.459,-0.153 0.73,-0.287 1.359,-0.66"
             style="fill:#6d6e70;fill-opacity:1;fill-rule:nonzero;stroke:none"
             id="path4416"
             inkscape:connector-curvature="0" /></g><g
           id="g4418"
           transform="translate(182.532,41.654)"><path
             d="m 0,0 c -0.631,-0.342 -1.373,-0.525 -2.136,-0.525 -2.337,0 -3.931,1.609 -3.931,3.964 0,2.423 1.662,4.132 4.014,4.132 0.392,0 0.767,-0.05 1.14,-0.15 C -0.405,7.283 -0.17,7.166 0.355,6.795 L -0.373,5.76 c -0.596,0.492 -1.034,0.661 -1.725,0.661 -1.545,0 -2.578,-1.185 -2.578,-2.913 0,-1.764 1.033,-2.865 2.674,-2.865 0.746,0 1.222,0.171 1.849,0.644 l 0.66,-1 C 0.287,0.15 0.115,0.049 0,0"
             style="fill:#6d6e70;fill-opacity:1;fill-rule:nonzero;stroke:none"
             id="path4420"
             inkscape:connector-curvature="0" /></g><g
           id="g4422"
           transform="translate(184.905,49.023)"><path
             d="m 0,0 1.269,0 0,-7.6758 -1.269,0 L 0,0 Z m 0.642,1.848 c -0.455,0 -0.83,0.37 -0.83,0.829 0,0.46 0.375,0.831 0.83,0.831 0.457,0 0.834,-0.371 0.834,-0.831 0,-0.459 -0.377,-0.829 -0.834,-0.829"
             style="fill:#6d6e70;fill-opacity:1;fill-rule:nonzero;stroke:none"
             id="path4424"
             inkscape:connector-curvature="0" /></g><g
           id="g4426"
           transform="translate(192.088,48.074)"><path
             d="m 0,0 c -1.068,0 -1.816,-0.642 -2.101,-1.828 l 3.759,0 C 1.643,-0.642 1.049,0 0,0 m -2.205,-2.777 c 0,-1.865 0.951,-3 2.513,-3 0.673,0 1.167,0.185 1.999,0.763 l 0.504,-1.003 c -1.131,-0.71 -1.776,-0.93 -2.778,-0.93 -2.134,0 -3.574,1.627 -3.574,4.048 0,2.441 1.44,4.053 3.625,4.053 1.795,0 2.965,-1.271 2.965,-3.187 l 0,-0.744"
             style="fill:#6d6e70;fill-opacity:1;fill-rule:nonzero;stroke:none"
             id="path4428"
             inkscape:connector-curvature="0" /></g><g
           id="g4430"
           transform="translate(202.524,41.348)"><path
             d="m 0,0 0,5.438 c 0,0.509 -0.035,0.68 -0.121,0.897 -0.116,0.259 -0.422,0.411 -0.774,0.411 -0.781,0 -1.609,-0.574 -2.949,-2.052 l 0,-4.694 -1.273,0 0,7.676 1.273,0 0,-1.61 c 0.525,0.594 0.676,0.745 1.047,1.051 0.578,0.492 1.34,0.764 2.053,0.764 1.353,0 2.015,-0.697 2.015,-2.135 L 1.271,0"
             style="fill:#6d6e70;fill-opacity:1;fill-rule:nonzero;stroke:none"
             id="path4432"
             inkscape:connector-curvature="0" /></g><g
           id="g4434"
           transform="translate(212.163,41.654)"><path
             d="m 0,0 c -0.625,-0.342 -1.371,-0.525 -2.138,-0.525 -2.336,0 -3.928,1.609 -3.928,3.964 0,2.423 1.664,4.132 4.018,4.132 0.388,0 0.759,-0.05 1.134,-0.15 0.508,-0.138 0.741,-0.255 1.27,-0.626 L -0.371,5.76 c -0.591,0.492 -1.035,0.661 -1.728,0.661 -1.545,0 -2.578,-1.185 -2.578,-2.913 0,-1.764 1.033,-2.865 2.677,-2.865 0.745,0 1.223,0.171 1.848,0.644 l 0.66,-1 C 0.288,0.15 0.12,0.049 0,0"
             style="fill:#6d6e70;fill-opacity:1;fill-rule:nonzero;stroke:none"
             id="path4436"
             inkscape:connector-curvature="0" /></g><g
           id="g4438"
           transform="translate(217.347,48.074)"><path
             d="m 0,0 c -1.068,0 -1.814,-0.642 -2.098,-1.828 l 3.762,0 C 1.647,-0.642 1.049,0 0,0 m -2.203,-2.777 c 0,-1.865 0.953,-3 2.506,-3 0.681,0 1.172,0.185 2,0.763 l 0.513,-1.003 c -1.138,-0.71 -1.781,-0.93 -2.781,-0.93 -2.133,0 -3.574,1.627 -3.574,4.048 0,2.441 1.441,4.053 3.625,4.053 1.796,0 2.963,-1.271 2.963,-3.187 l 0,-0.744"
             style="fill:#6d6e70;fill-opacity:1;fill-rule:nonzero;stroke:none"
             id="path4440"
             inkscape:connector-curvature="0" /></g><g
           id="g4442"
           transform="translate(225.093,41.129)"><path
             d="m 0,0 c -0.322,0 -0.68,0.033 -1.072,0.102 -0.725,0.134 -1.045,0.252 -1.807,0.644 l 0.522,1.067 c 0.254,-0.137 0.443,-0.239 0.576,-0.305 0.542,-0.254 1.217,-0.426 1.76,-0.426 0.779,0 1.357,0.426 1.357,1.019 0,0.186 -0.068,0.407 -0.154,0.526 -0.303,0.439 -0.66,0.658 -2.035,1.22 -1.487,0.625 -1.996,1.149 -1.996,2.082 0,1.337 1.117,2.168 2.914,2.168 0.321,0 0.66,-0.015 0.986,-0.085 C 1.625,7.913 1.893,7.793 2.539,7.438 L 1.91,6.402 C 1.422,6.709 1.203,6.811 0.811,6.913 0.508,6.996 0.219,7.049 -0.072,7.049 c -0.863,0 -1.42,-0.391 -1.42,-0.967 0,-0.187 0.066,-0.355 0.182,-0.473 C -1.004,5.303 -0.797,5.184 0.59,4.604 2.219,3.929 2.676,3.406 2.676,2.203 2.676,0.832 1.676,0 0,0"
             style="fill:#6d6e70;fill-opacity:1;fill-rule:nonzero;stroke:none"
             id="path4444"
             inkscape:connector-curvature="0" /></g></g><g
         id="g4446"><g
           clip-path="url(#clipPath4450)"
           id="g4448"><g
             transform="translate(9.1582,85.216)"
             id="g4454"><path
               inkscape:connector-curvature="0"
               id="path4456"
               style="fill:#231f20;fill-opacity:1;fill-rule:nonzero;stroke:none"
               d="m 0,0 -5.7383,0 0,-49.093 5.7383,0 0,-1.522 -9.1582,0 0,52.136 9.1582,0" /></g></g></g></g></g></svg>